<?xml version="1.0" encoding="utf-8"?>
<!-- Generator: Adobe Illustrator 24.0.2, SVG Export Plug-In . SVG Version: 6.00 Build 0)  -->
<svg version="1.1" id="Layer_1" xmlns="http://www.w3.org/2000/svg" xmlns:xlink="http://www.w3.org/1999/xlink" x="0px" y="0px"
	 viewBox="0 0 414.9 129.5" style="enable-background:new 0 0 414.9 129.5;" xml:space="preserve">
<style type="text/css">
	.st0{fill:#EA5B0C;}
</style>
<path class="st0" d="M182.6,127.4h26.3V28.5h-28.4v54.3c0,13.5-5.7,20.8-16.2,20.8c-10.6,0-15.6-6.7-15.6-20.8V28.5h-28.4v61.9
	c0,24.5,13,38.7,35.1,38.7c11.5,0,18.5-3,27.2-12.1V127.4z"/>
<path class="st0" d="M329.9,0v38.5C321.5,31,313.5,28,303.1,28c-27.2,0-48.8,22.5-48.8,50.8c0,28.9,21.5,50.8,49.7,50.8
	c11.4,0,18.3-2.7,25.9-9.8v7.6h28.6V0H329.9z M305.9,103.2c-13.5,0-24.4-10.9-24.4-24.4c0-13.5,10.9-24.4,24.4-24.4
	c13.5,0,24.4,10.9,24.4,24.4C330.3,92.3,319.4,103.2,305.9,103.2z"/>
<rect x="217.9" y="28.5" class="st0" width="28.4" height="98.7"/>
<rect x="82.9" y="0.1" class="st0" width="28.4" height="127.1"/>
<path class="st0" d="M390.4,127.2c13.5,0,24.4-10.9,24.4-24.4c0-13.5-10.9-24.4-24.4-24.4c-13.5,0-24.4,10.9-24.4,24.4
	C366,116.3,377,127.2,390.4,127.2"/>
<polygon class="st0" points="0,127.2 28.9,127.2 28.9,80.2 73.8,80.2 73.8,52 28.9,52 28.9,28.5 73.8,28.5 73.8,0.1 0,0.1 "/>
</svg>
