<svg xmlns="http://www.w3.org/2000/svg" width="912.8" height="150.6" viewBox="0 0 912.8 150.6">
  <path id="Path_67" data-name="Path 67" d="M119.4-95.2a45.212,45.212,0,0,1-5.6,22.3q-5.6,10.1-17.2,16.3T67.8-50.4H46.6V0H12.4V-140.4H67.8q16.8,0,28.4,5.8a39.862,39.862,0,0,1,17.4,16A46.5,46.5,0,0,1,119.4-95.2ZM65.2-77.6q9.8,0,14.6-4.6t4.8-13q0-8.4-4.8-13t-14.6-4.6H46.6v35.2ZM188,1.6a61.6,61.6,0,0,1-29.5-7,51.256,51.256,0,0,1-20.6-20q-7.5-13-7.5-30.4,0-17.2,7.6-30.3a51.569,51.569,0,0,1,20.8-20.1,62.188,62.188,0,0,1,29.6-7,62.188,62.188,0,0,1,29.6,7,51.569,51.569,0,0,1,20.8,20.1q7.6,13.1,7.6,30.3t-7.7,30.3a52.069,52.069,0,0,1-21,20.1A62.779,62.779,0,0,1,188,1.6ZM188-28a22.28,22.28,0,0,0,16.7-7.2q6.9-7.2,6.9-20.6t-6.7-20.6a21.652,21.652,0,0,0-16.5-7.2,21.7,21.7,0,0,0-16.6,7.1q-6.6,7.1-6.6,20.7,0,13.4,6.5,20.6A21.037,21.037,0,0,0,188-28ZM332.8,0l-34-46.8V0H264.6V-148h34.2v81.8l33.8-45.4h42.2l-46.4,56L375.2,0ZM493.4-57.6a87.307,87.307,0,0,1-.6,10H415.4q.8,10.4,6.7,15.9a20.469,20.469,0,0,0,14.5,5.5q12.8,0,17.8-10.8h36.4a49.949,49.949,0,0,1-10.1,19.8A50.567,50.567,0,0,1,462.4-3.4a58.781,58.781,0,0,1-24.6,5q-16.4,0-29.2-7a49.79,49.79,0,0,1-20-20q-7.2-13-7.2-30.4t7.1-30.4a49.144,49.144,0,0,1,19.9-20q12.8-7,29.4-7,16.2,0,28.8,6.8A48.826,48.826,0,0,1,486.3-87Q493.4-74.4,493.4-57.6Zm-35-9q0-8.8-6-14t-15-5.2a21.661,21.661,0,0,0-14.5,5q-5.9,5-7.3,14.2ZM504.6-56q0-17.2,6.5-30.2a48.484,48.484,0,0,1,17.7-20,46.209,46.209,0,0,1,25-7,43.911,43.911,0,0,1,20.1,4.6,36.626,36.626,0,0,1,14.3,12.4V-148h34.2V0H588.2V-16A34.84,34.84,0,0,1,574.5-3.2a42.947,42.947,0,0,1-20.7,4.8,45.725,45.725,0,0,1-25-7.1,49.062,49.062,0,0,1-17.7-20.2Q504.6-38.8,504.6-56Zm83.6.2q0-12.8-7.1-20.2a23.068,23.068,0,0,0-17.3-7.4,23.22,23.22,0,0,0-17.3,7.3q-7.1,7.3-7.1,20.1t7.1,20.3a22.922,22.922,0,0,0,17.3,7.5,23.068,23.068,0,0,0,17.3-7.4Q588.2-43,588.2-55.8Zm164.2-1.8a87.313,87.313,0,0,1-.6,10H674.4q.8,10.4,6.7,15.9a20.469,20.469,0,0,0,14.5,5.5q12.8,0,17.8-10.8h36.4a49.949,49.949,0,0,1-10.1,19.8A50.568,50.568,0,0,1,721.4-3.4a58.781,58.781,0,0,1-24.6,5q-16.4,0-29.2-7a49.79,49.79,0,0,1-20-20q-7.2-13-7.2-30.4t7.1-30.4a49.145,49.145,0,0,1,19.9-20q12.8-7,29.4-7,16.2,0,28.8,6.8A48.826,48.826,0,0,1,745.3-87Q752.4-74.4,752.4-57.6Zm-35-9q0-8.8-6-14t-15-5.2a21.661,21.661,0,0,0-14.5,5q-5.9,5-7.3,14.2ZM836.4,0,815-31,797,0H760l36.8-57L759-111.6h38.4l21.4,30.8,18-30.8h37L836.4-55.4,874.8,0ZM904,1.6q-9,0-14.7-5.3a17.174,17.174,0,0,1-5.7-13.1,17.711,17.711,0,0,1,5.7-13.4q5.7-5.4,14.7-5.4,8.8,0,14.5,5.4a17.711,17.711,0,0,1,5.7,13.4,17.174,17.174,0,0,1-5.7,13.1Q912.8,1.6,904,1.6Z" transform="translate(-11.9 148.5)" fill="none" stroke="#0058ff" stroke-width="1"/>
</svg>
